<?xml version="1.0" encoding="UTF-8" standalone="no"?>
<svg
   xmlns:dc="http://purl.org/dc/elements/1.1/"
   xmlns:cc="http://creativecommons.org/ns#"
   xmlns:rdf="http://www.w3.org/1999/02/22-rdf-syntax-ns#"
   xmlns:svg="http://www.w3.org/2000/svg"
   xmlns="http://www.w3.org/2000/svg"
   xmlns:xlink="http://www.w3.org/1999/xlink"
   xmlns:sodipodi="http://sodipodi.sourceforge.net/DTD/sodipodi-0.dtd"
   xmlns:inkscape="http://www.inkscape.org/namespaces/inkscape"
   id="svg5978"
   version="1.1"
   viewBox="0 0 279.4 215.90001"
   height="8.5in"
   width="11in"
   sodipodi:docname="ResourceCardFace.svg"
   inkscape:version="0.92.2 (5c3e80d, 2017-08-06)">
  <sodipodi:namedview
     pagecolor="#ffffff"
     bordercolor="#666666"
     borderopacity="1"
     objecttolerance="10"
     gridtolerance="10"
     guidetolerance="10"
     inkscape:pageopacity="0"
     inkscape:pageshadow="2"
     inkscape:window-width="1600"
     inkscape:window-height="1177"
     id="namedview8619"
     showgrid="true"
     inkscape:zoom="2.0306718"
     inkscape:cx="212.71908"
     inkscape:cy="-109.26331"
     inkscape:window-x="-8"
     inkscape:window-y="-8"
     inkscape:window-maximized="1"
     inkscape:current-layer="svg5978"
     inkscape:document-units="in"
     inkscape:measure-start="156,-156"
     inkscape:measure-end="156,-36"
     showguides="true"
     inkscape:guide-bbox="true"
     inkscape:snap-object-midpoints="true">
    <inkscape:grid
       type="xygrid"
       id="grid8621"
       units="in"
       spacingx="3.1750001"
       spacingy="3.1750001" />
    <sodipodi:guide
       position="88.900001,-44.450002"
       orientation="0,1"
       id="guide937"
       inkscape:locked="false" />
    <sodipodi:guide
       position="44.45,-15.875001"
       orientation="1,0"
       id="guide939"
       inkscape:locked="false" />
    <sodipodi:guide
       position="66.675002,-31.750001"
       orientation="0,1"
       id="guide951"
       inkscape:locked="false" />
    <sodipodi:guide
       position="15.875,-57.150002"
       orientation="0,1"
       id="guide953"
       inkscape:locked="false" />
  </sodipodi:namedview>
  <defs
     id="defs5972" />
  <metadata
     id="metadata5975">
    <rdf:RDF>
      <cc:Work
         rdf:about="">
        <dc:format>image/svg+xml</dc:format>
        <dc:type
           rdf:resource="http://purl.org/dc/dcmitype/StillImage" />
        <dc:title />
      </cc:Work>
    </rdf:RDF>
  </metadata>
  <g
     id="layer3" />
  <g
     transform="translate(0,-81.099993)"
     id="layer1">
    <g
       id="g6676">
      <g
         id="g6629">
        <path
           id="path6623"
           d="m 12.7,185.875 v 6.35"
           style="fill:none;stroke:#000000;stroke-width:0.07055556;stroke-linecap:butt;stroke-linejoin:miter;stroke-miterlimit:4;stroke-dasharray:none;stroke-opacity:1" />
        <path
           id="path6625"
           d="M 9.5250002,189.05 H 15.875"
           style="fill:none;stroke:#000000;stroke-width:0.07055556;stroke-linecap:butt;stroke-linejoin:miter;stroke-miterlimit:4;stroke-dasharray:none;stroke-opacity:1" />
      </g>
      <use
         x="0"
         y="0"
         xlink:href="#g6629"
         id="use6631"
         transform="translate(3.6764705e-7,-88.900007)"
         width="100%"
         height="100%" />
      <use
         height="100%"
         width="100%"
         transform="translate(63.500002,-88.900012)"
         id="use6633"
         xlink:href="#g6629"
         y="0"
         x="0" />
      <use
         x="0"
         y="0"
         xlink:href="#g6629"
         id="use6635"
         transform="translate(127,-88.900007)"
         width="100%"
         height="100%" />
      <use
         height="100%"
         width="100%"
         transform="translate(63.500002,-4.4264706e-6)"
         id="use6637"
         xlink:href="#g6629"
         y="0"
         x="0" />
      <use
         x="0"
         y="0"
         xlink:href="#g6629"
         id="use6639"
         transform="translate(127,-4.4264706e-6)"
         width="100%"
         height="100%" />
      <use
         height="100%"
         width="100%"
         transform="translate(63.500002,88.899998)"
         id="use6641"
         xlink:href="#g6629"
         y="0"
         x="0" />
      <use
         x="0"
         y="0"
         xlink:href="#g6629"
         id="use6643"
         transform="translate(0,88.899998)"
         width="100%"
         height="100%" />
      <use
         height="100%"
         width="100%"
         transform="translate(127,88.899998)"
         id="use6645"
         xlink:href="#g6629"
         y="0"
         x="0" />
      <use
         x="0"
         y="0"
         xlink:href="#g6629"
         id="use6647"
         transform="translate(190.5,88.899998)"
         width="100%"
         height="100%" />
      <use
         height="100%"
         width="100%"
         transform="translate(254.00001,88.899998)"
         id="use6649"
         xlink:href="#g6629"
         y="0"
         x="0" />
      <use
         x="0"
         y="0"
         xlink:href="#g6629"
         id="use6651"
         transform="translate(254,-4.5735295e-6)"
         width="100%"
         height="100%" />
      <use
         height="100%"
         width="100%"
         transform="translate(190.5,-2.0000001e-6)"
         id="use6653"
         xlink:href="#g6629"
         y="0"
         x="0" />
      <use
         x="0"
         y="0"
         xlink:href="#g6629"
         id="use6655"
         transform="translate(190.5,-88.900007)"
         width="100%"
         height="100%" />
      <use
         height="100%"
         width="100%"
         transform="translate(254.00001,-88.900012)"
         id="use6657"
         xlink:href="#g6629"
         y="0"
         x="0" />
    </g>
  </g>
  <g
     id="layer2">
    <g
       id="g6611"
       transform="translate(0,-81.099993)">
      <ellipse
         style="fill:#000000;fill-opacity:0;stroke:#000000;stroke-width:0.07055556;stroke-miterlimit:4;stroke-dasharray:none;stroke-opacity:1"
         id="path6587"
         cx="44.450001"
         cy="90.624985"
         rx="3.1750011"
         ry="3.1750002" />
      <use
         x="0"
         y="0"
         xlink:href="#path6587"
         id="use6589"
         transform="translate(127,4.3706056e-6)"
         width="100%"
         height="100%" />
      <use
         x="0"
         y="0"
         xlink:href="#use6589"
         id="use6591"
         transform="translate(-63.500001)"
         width="100%"
         height="100%" />
      <use
         x="0"
         y="0"
         xlink:href="#use6591"
         id="use6593"
         transform="translate(127)"
         width="100%"
         height="100%" />
      <use
         x="0"
         y="0"
         xlink:href="#path6587"
         id="use6595"
         transform="translate(0,196.85001)"
         width="100%"
         height="100%" />
      <use
         x="0"
         y="0"
         xlink:href="#use6589"
         id="use6597"
         transform="translate(0,196.85001)"
         width="100%"
         height="100%" />
      <use
         x="0"
         y="0"
         xlink:href="#use6591"
         id="use6599"
         transform="translate(1.0029395e-6,196.85001)"
         width="100%"
         height="100%" />
      <use
         x="0"
         y="0"
         xlink:href="#use6593"
         id="use6601"
         transform="translate(0,196.85001)"
         width="100%"
         height="100%" />
    </g>
  </g>
  <g
     id="g927"
     transform="translate(-79.375007,104.775)">
    <g
       id="CardFace">
      <rect
         ry="0"
         y="117.47501"
         x="98.425003"
         height="76.200005"
         width="50.800003"
         id="rect8207"
         style="fill:#afc5d6;fill-opacity:0.99215686;stroke:none;stroke-width:0.07055556;stroke-miterlimit:4;stroke-dasharray:none;stroke-opacity:1" />
      <path
         inkscape:connector-curvature="0"
         id="rect6679"
         d="m 98.425008,114.30001 c -1.758952,0 -3.175,1.41604 -3.175,3.175 v 76.2 c 0,1.75895 1.416048,3.175 3.175,3.175 h 50.800002 c 1.75895,0 3.175,-1.41605 3.175,-3.175 v -76.2 c 0,-1.75896 -1.41605,-3.175 -3.175,-3.175 z m 1.587502,3.175 h 47.625 c 0.87947,0 1.5875,0.70802 1.5875,1.5875 v 73.025 c 0,0.87947 -0.70803,1.5875 -1.5875,1.5875 h -47.625 c -0.879478,0 -1.587502,-0.70803 -1.587502,-1.5875 v -73.025 c 0,-0.87948 0.708024,-1.5875 1.587502,-1.5875 z"
         style="fill:#0058ad;fill-opacity:0.98989898;stroke:#000000;stroke-width:0.07055556;stroke-miterlimit:4;stroke-dasharray:none;stroke-opacity:1" />
    </g>
  </g>
  <image
     sodipodi:absref="C:\Users\cwmillerjr\Documents\ChristmasChaos\ResourceCard\../CommonCard/Assets/Resources/coal_halfinch.png"
     xlink:href="../CommonCard/Assets/Resources/coal_halfinch.png"
     y="215.90001"
     x="-12.700001"
     id="CoalIcon"
     preserveAspectRatio="none"
     height="12.700001"
     width="12.700001" />
  <image
     sodipodi:absref="C:\Users\cwmillerjr\Documents\ChristmasChaos\ResourceCard\../CommonCard/Assets/Resources/cotton_halfinch.png"
     xlink:href="../CommonCard/Assets/Resources/cotton_halfinch.png"
     y="215.90001"
     x="-12.700001"
     id="CottonIcon"
     preserveAspectRatio="none"
     height="12.700001"
     width="12.700001" />
  <image
     sodipodi:absref="C:\Users\cwmillerjr\Documents\ChristmasChaos\ResourceCard\../CommonCard/Assets/Resources/leather_halfinch.png"
     xlink:href="../CommonCard/Assets/Resources/leather_halfinch.png"
     y="215.90001"
     x="-12.700001"
     id="LeatherIcon"
     preserveAspectRatio="none"
     height="12.700001"
     width="12.700001" />
  <image
     sodipodi:absref="C:\Users\cwmillerjr\Documents\ChristmasChaos\ResourceCard\../CommonCard/Assets/Resources/magic_halfinch.png"
     xlink:href="../CommonCard/Assets/Resources/magic_halfinch.png"
     y="215.90001"
     x="-12.700001"
     id="MagicIcon"
     preserveAspectRatio="none"
     height="12.700001"
     width="12.700001" />
  <image
     sodipodi:absref="C:\Users\cwmillerjr\Documents\ChristmasChaos\ResourceCard\../CommonCard/Assets/Resources/metal_halfinch.png"
     xlink:href="../CommonCard/Assets/Resources/metal_halfinch.png"
     y="215.90001"
     x="-12.700001"
     id="MetalIcon"
     preserveAspectRatio="none"
     height="12.700001"
     width="12.700001" />
  <image
     sodipodi:absref="C:\Users\cwmillerjr\Documents\ChristmasChaos\ResourceCard\../CommonCard/Assets/Resources/rubber_halfinch.png"
     xlink:href="../CommonCard/Assets/Resources/rubber_halfinch.png"
     y="216.662"
     x="-12.700001"
     id="RubberIcon"
     preserveAspectRatio="none"
     height="11.938"
     width="12.700001" />
  <image
     sodipodi:absref="C:\Users\cwmillerjr\Documents\ChristmasChaos\ResourceCard\../CommonCard/Assets/Resources/wood_halfinch.png"
     xlink:href="../CommonCard/Assets/Resources/wood_halfinch.png"
     y="215.90001"
     x="-12.700001"
     id="WoodIcon"
     preserveAspectRatio="none"
     height="12.700001"
     width="12.700001" />
  <flowRoot
     style="fill:black;fill-opacity:1;stroke:none;font-family:sans-serif;font-style:normal;font-weight:normal;font-size:24px;line-height:1.25;letter-spacing:0px;word-spacing:0px;text-anchor:middle;text-align:center;"
     id="flowRoot8173"
     xml:space="preserve"><flowRegion
       style="text-anchor:middle;text-align:center;font-size:24px;"
       id="flowRegion8175"><rect
         style="text-anchor:middle;text-align:center;font-size:24px;"
         y="564"
         x="144"
         height="48"
         width="108"
         id="rect8177" /></flowRegion><flowPara
       id="flowPara8179" /></flowRoot>  <use
     height="100%"
     width="100%"
     transform="translate(-3.9999997e-7,-88.900011)"
     id="use8213"
     xlink:href="#image8132"
     y="0"
     x="0" />
  <use
     x="0"
     y="0"
     xlink:href="#image8143"
     id="use8233"
     transform="translate(38.099998,-50.800016)"
     width="100%"
     height="100%" />
  <use
     height="100%"
     width="100%"
     transform="translate(38.099998,-69.850017)"
     id="use8235"
     xlink:href="#image8143"
     y="0"
     x="0" />
  <use
     x="0"
     y="0"
     xlink:href="#image8143"
     id="use8237"
     transform="translate(38.099998,-88.900017)"
     width="100%"
     height="100%" />
  <use
     height="100%"
     width="100%"
     transform="translate(-12.700003,-139.7)"
     id="use8247"
     xlink:href="#image8154"
     y="0"
     x="0" />
  <use
     x="0"
     y="0"
     xlink:href="#image8154"
     id="use8249"
     transform="translate(-12.700002,-158.75001)"
     width="100%"
     height="100%" />
  <g
     id="Card_C">
    <use
       height="100%"
       width="100%"
       transform="translate(63.500005)"
       id="use4771"
       xlink:href="#g927"
       y="0"
       x="0" />
    <g
       id="Premium_CGroup">
      <path
         sodipodi:type="star"
         style="fill:#efff59;fill-opacity:1;stroke:none;stroke-width:0.25400001;stroke-miterlimit:4;stroke-dasharray:none;stroke-opacity:0.98823529"
         id="Premium_C"
         sodipodi:sides="8"
         sodipodi:cx="107.95"
         sodipodi:cy="260.35001"
         sodipodi:r1="22.225"
         sodipodi:r2="11.1125"
         sodipodi:arg1="0"
         sodipodi:arg2="0.39269908"
         inkscape:flatsided="false"
         inkscape:rounded="0"
         inkscape:randomized="0"
         d="m 130.175,260.35001 -11.95839,4.25257 5.44884,11.46287 -11.46288,-5.44883 -4.25257,11.95839 -4.25257,-11.95839 -11.462882,5.44883 5.448837,-11.46287 -11.958388,-4.25257 11.958388,-4.25257 -5.448837,-11.46288 11.462882,5.44883 4.25257,-11.95838 4.25257,11.95838 11.46288,-5.44883 -5.44884,11.46288 z" />
      <path
         sodipodi:type="star"
         style="fill:#efff59;fill-opacity:1;stroke:none;stroke-width:0.25400001;stroke-miterlimit:4;stroke-dasharray:none;stroke-opacity:0.98823529"
         id="Premium_CTop"
         sodipodi:sides="8"
         sodipodi:cx="92.075005"
         sodipodi:cy="231.77501"
         sodipodi:r1="8.980257"
         sodipodi:r2="4.4901285"
         sodipodi:arg1="-0.78539816"
         sodipodi:arg2="-0.39269908"
         inkscape:flatsided="false"
         inkscape:rounded="0"
         inkscape:randomized="0"
         d="m 98.425005,225.42501 -2.201663,4.6317 4.831918,1.7183 -4.831918,1.7183 2.201663,4.6317 -4.631703,-2.20166 -1.718297,4.83192 -1.718298,-4.83192 -4.631703,2.20166 2.201663,-4.6317 -4.831919,-1.7183 4.831919,-1.7183 -2.201663,-4.6317 4.631703,2.20166 1.718298,-4.83192 1.718297,4.83192 z" />
      <path
         sodipodi:type="star"
         style="fill:#efff59;fill-opacity:1;stroke:none;stroke-width:0.25400001;stroke-miterlimit:4;stroke-dasharray:none;stroke-opacity:0.98823529"
         id="Premium_CBottom"
         sodipodi:sides="8"
         sodipodi:cx="123.825"
         sodipodi:cy="288.92502"
         sodipodi:r1="8.980257"
         sodipodi:r2="4.4901285"
         sodipodi:arg1="-0.78539816"
         sodipodi:arg2="-0.39269908"
         inkscape:flatsided="false"
         inkscape:rounded="0"
         inkscape:randomized="0"
         d="m 130.175,282.57502 -2.20167,4.6317 4.83192,1.7183 -4.83192,1.7183 2.20167,4.6317 -4.63171,-2.20166 -1.71829,4.83192 -1.7183,-4.83192 -4.6317,2.20166 2.20166,-4.6317 -4.83192,-1.7183 4.83192,-1.7183 -2.20166,-4.6317 4.6317,2.20166 1.7183,-4.83192 1.71829,4.83192 z" />
    </g>
    <g
       id="g6931">
      <use
         height="100%"
         width="100%"
         transform="matrix(0.75,0,0,0.74999985,96.837503,65.087525)"
         id="ResourceImage_CTop"
         xlink:href="#WoodIcon"
         y="0"
         x="0" />
      <use
         height="100%"
         width="100%"
         transform="matrix(0.75,0,0,0.75000055,128.5875,122.2374)"
         id="ResourceImage_CBottom"
         xlink:href="#WoodIcon"
         y="0"
         x="0" />
      <use
         height="100%"
         width="100%"
         transform="matrix(2.5,0,0,2.5,123.825,-295.27502)"
         id="ResourceImage_C"
         xlink:href="#WoodIcon"
         y="0"
         x="0" />
    </g>
  </g>
  <g
     id="Card_T"
     transform="translate(63.500006)">
    <use
       x="0"
       y="0"
       xlink:href="#g927"
       id="use4801"
       transform="translate(63.500005)"
       width="100%"
       height="100%" />
    <g
       id="Premium_TGroup">
      <path
         d="m 130.175,260.35001 -11.95839,4.25257 5.44884,11.46287 -11.46288,-5.44883 -4.25257,11.95839 -4.25257,-11.95839 -11.462882,5.44883 5.448837,-11.46287 -11.958388,-4.25257 11.958388,-4.25257 -5.448837,-11.46288 11.462882,5.44883 4.25257,-11.95838 4.25257,11.95838 11.46288,-5.44883 -5.44884,11.46288 z"
         inkscape:randomized="0"
         inkscape:rounded="0"
         inkscape:flatsided="false"
         sodipodi:arg2="0.39269908"
         sodipodi:arg1="0"
         sodipodi:r2="11.1125"
         sodipodi:r1="22.225"
         sodipodi:cy="260.35001"
         sodipodi:cx="107.95"
         sodipodi:sides="8"
         id="Premium_T"
         style="fill:#efff59;fill-opacity:1;stroke:none;stroke-width:0.25400001;stroke-miterlimit:4;stroke-dasharray:none;stroke-opacity:0.98823529"
         sodipodi:type="star" />
      <path
         d="m 98.425005,225.42501 -2.201663,4.6317 4.831918,1.7183 -4.831918,1.7183 2.201663,4.6317 -4.631703,-2.20166 -1.718297,4.83192 -1.718298,-4.83192 -4.631703,2.20166 2.201663,-4.6317 -4.831919,-1.7183 4.831919,-1.7183 -2.201663,-4.6317 4.631703,2.20166 1.718298,-4.83192 1.718297,4.83192 z"
         inkscape:randomized="0"
         inkscape:rounded="0"
         inkscape:flatsided="false"
         sodipodi:arg2="-0.39269908"
         sodipodi:arg1="-0.78539816"
         sodipodi:r2="4.4901285"
         sodipodi:r1="8.980257"
         sodipodi:cy="231.77501"
         sodipodi:cx="92.075005"
         sodipodi:sides="8"
         id="Premium_TTop"
         style="fill:#efff59;fill-opacity:1;stroke:none;stroke-width:0.25400001;stroke-miterlimit:4;stroke-dasharray:none;stroke-opacity:0.98823529"
         sodipodi:type="star" />
      <path
         d="m 130.175,282.57502 -2.20167,4.6317 4.83192,1.7183 -4.83192,1.7183 2.20167,4.6317 -4.63171,-2.20166 -1.71829,4.83192 -1.7183,-4.83192 -4.6317,2.20166 2.20166,-4.6317 -4.83192,-1.7183 4.83192,-1.7183 -2.20166,-4.6317 4.6317,2.20166 1.7183,-4.83192 1.71829,4.83192 z"
         inkscape:randomized="0"
         inkscape:rounded="0"
         inkscape:flatsided="false"
         sodipodi:arg2="-0.39269908"
         sodipodi:arg1="-0.78539816"
         sodipodi:r2="4.4901285"
         sodipodi:r1="8.980257"
         sodipodi:cy="288.92502"
         sodipodi:cx="123.825"
         sodipodi:sides="8"
         id="Premium_TBottom"
         style="fill:#efff59;fill-opacity:1;stroke:none;stroke-width:0.25400001;stroke-miterlimit:4;stroke-dasharray:none;stroke-opacity:0.98823529"
         sodipodi:type="star" />
    </g>
    <g
       id="g6941">
      <use
         x="0"
         y="0"
         xlink:href="#WoodIcon"
         id="ResourceImage_TTop"
         transform="matrix(0.75,0,0,0.74999985,96.837503,65.087525)"
         width="100%"
         height="100%" />
      <use
         x="0"
         y="0"
         xlink:href="#WoodIcon"
         id="ResourceImage_TBottom"
         transform="matrix(-0.75,0,0,-0.75000055,119.0625,455.61266)"
         width="100%"
         height="100%" />
      <use
         x="0"
         y="0"
         xlink:href="#WoodIcon"
         id="ResourceImage_T"
         transform="matrix(2.5,0,0,2.5,123.825,-295.27502)"
         width="100%"
         height="100%" />
    </g>
  </g>
  <image
     sodipodi:absref="C:\Users\cwmillerjr\Documents\ChristmasChaos\CommonCard\Assets\Resources\plastic_halfinch.png"
     y="217.89136"
     x="-12.700001"
     id="PlasticIcon"
     xlink:href="file:///C:/Users/cwmillerjr/Documents/ChristmasChaos/CommonCard/Assets/Resources/plastic_halfinch.png"
     preserveAspectRatio="none"
     height="7.8740001"
     width="12.700001" />
</svg>
